<?xml version="1.0" encoding="UTF-8" standalone="no"?>
<!DOCTYPE svg PUBLIC "-//W3C//DTD SVG 1.1//EN"
 "http://www.w3.org/Graphics/SVG/1.1/DTD/svg11.dtd">
<!-- Generated by graphviz version 2.38.0 (20140413.2041)
 -->
<!-- Title: LeNet Pages: 1 -->
<svg width="491pt" height="1252pt"
 viewBox="0.00 0.00 490.50 1252.00" xmlns="http://www.w3.org/2000/svg" xmlns:xlink="http://www.w3.org/1999/xlink">
<g id="graph0" class="graph" transform="scale(1 1) rotate(0) translate(4 1248)">
<title>LeNet</title>
<polygon fill="white" stroke="none" points="-4,4 -4,-1248 486.5,-1248 486.5,4 -4,4"/>
<!-- accuracy (Accuracy) -->
<g id="node1" class="node"><title>accuracy (Accuracy)</title>
<polygon fill="#6495ed" stroke="black" points="0,-73.5 0,-109.5 129,-109.5 129,-73.5 0,-73.5"/>
<text text-anchor="middle" x="64.5" y="-87.8" font-family="Times,serif" font-size="14.00">accuracy (Accuracy)</text>
</g>
<!-- accuracy -->
<g id="node20" class="node"><title>accuracy</title>
<ellipse fill="none" stroke="black" cx="64.5" cy="-18" rx="42.4939" ry="18"/>
<text text-anchor="middle" x="64.5" y="-14.3" font-family="Times,serif" font-size="14.00">accuracy</text>
</g>
<!-- accuracy (Accuracy)&#45;&gt;accuracy -->
<g id="edge21" class="edge"><title>accuracy (Accuracy)&#45;&gt;accuracy</title>
<path fill="none" stroke="black" d="M64.5,-73.1918C64.5,-65.112 64.5,-55.3014 64.5,-46.2598"/>
<polygon fill="black" stroke="black" points="68.0001,-46.1487 64.5,-36.1488 61.0001,-46.1488 68.0001,-46.1487"/>
</g>
<!-- conv1 (Convolution) kernel size: 5 stride: 1 pad: 0 -->
<g id="node2" class="node"><title>conv1 (Convolution) kernel size: 5 stride: 1 pad: 0</title>
<polygon fill="#ff5050" stroke="black" points="186.5,-1011.5 186.5,-1047.5 478.5,-1047.5 478.5,-1011.5 186.5,-1011.5"/>
<text text-anchor="middle" x="332.5" y="-1025.8" font-family="Times,serif" font-size="14.00">conv1 (Convolution) kernel size: 5 stride: 1 pad: 0</text>
</g>
<!-- conv1 -->
<g id="node10" class="node"><title>conv1</title>
<polygon fill="#e0e0e0" stroke="black" points="367.85,-934.544 367.85,-949.456 347.143,-960 317.857,-960 297.15,-949.456 297.15,-934.544 317.857,-924 347.143,-924 367.85,-934.544"/>
<text text-anchor="middle" x="332.5" y="-938.3" font-family="Times,serif" font-size="14.00">conv1</text>
</g>
<!-- conv1 (Convolution) kernel size: 5 stride: 1 pad: 0&#45;&gt;conv1 -->
<g id="edge6" class="edge"><title>conv1 (Convolution) kernel size: 5 stride: 1 pad: 0&#45;&gt;conv1</title>
<path fill="none" stroke="black" d="M332.5,-1011.2C332.5,-999.493 332.5,-983.786 332.5,-970.397"/>
<polygon fill="black" stroke="black" points="336,-970.276 332.5,-960.276 329,-970.277 336,-970.276"/>
<text text-anchor="middle" x="339.5" y="-981.8" font-family="Times,serif" font-size="14.00">20</text>
</g>
<!-- conv2 (Convolution) kernel size: 5 stride: 1 pad: 0 -->
<g id="node3" class="node"><title>conv2 (Convolution) kernel size: 5 stride: 1 pad: 0</title>
<polygon fill="#ff5050" stroke="black" points="186.5,-703.5 186.5,-739.5 478.5,-739.5 478.5,-703.5 186.5,-703.5"/>
<text text-anchor="middle" x="332.5" y="-717.8" font-family="Times,serif" font-size="14.00">conv2 (Convolution) kernel size: 5 stride: 1 pad: 0</text>
</g>
<!-- conv2 -->
<g id="node12" class="node"><title>conv2</title>
<polygon fill="#e0e0e0" stroke="black" points="367.85,-626.544 367.85,-641.456 347.143,-652 317.857,-652 297.15,-641.456 297.15,-626.544 317.857,-616 347.143,-616 367.85,-626.544"/>
<text text-anchor="middle" x="332.5" y="-630.3" font-family="Times,serif" font-size="14.00">conv2</text>
</g>
<!-- conv2 (Convolution) kernel size: 5 stride: 1 pad: 0&#45;&gt;conv2 -->
<g id="edge10" class="edge"><title>conv2 (Convolution) kernel size: 5 stride: 1 pad: 0&#45;&gt;conv2</title>
<path fill="none" stroke="black" d="M332.5,-703.198C332.5,-691.493 332.5,-675.786 332.5,-662.397"/>
<polygon fill="black" stroke="black" points="336,-662.276 332.5,-652.276 329,-662.277 336,-662.276"/>
<text text-anchor="middle" x="339.5" y="-673.8" font-family="Times,serif" font-size="14.00">50</text>
</g>
<!-- loss (SoftmaxWithLoss) -->
<g id="node4" class="node"><title>loss (SoftmaxWithLoss)</title>
<polygon fill="#6495ed" stroke="black" points="147.5,-73.5 147.5,-109.5 297.5,-109.5 297.5,-73.5 147.5,-73.5"/>
<text text-anchor="middle" x="222.5" y="-87.8" font-family="Times,serif" font-size="14.00">loss (SoftmaxWithLoss)</text>
</g>
<!-- loss -->
<g id="node13" class="node"><title>loss</title>
<ellipse fill="none" stroke="black" cx="222.5" cy="-18" rx="27" ry="18"/>
<text text-anchor="middle" x="222.5" y="-14.3" font-family="Times,serif" font-size="14.00">loss</text>
</g>
<!-- loss (SoftmaxWithLoss)&#45;&gt;loss -->
<g id="edge24" class="edge"><title>loss (SoftmaxWithLoss)&#45;&gt;loss</title>
<path fill="none" stroke="black" d="M222.5,-73.1918C222.5,-65.112 222.5,-55.3014 222.5,-46.2598"/>
<polygon fill="black" stroke="black" points="226,-46.1487 222.5,-36.1488 219,-46.1488 226,-46.1487"/>
</g>
<!-- pool1 -->
<g id="node5" class="node"><title>pool1</title>
<polygon fill="#e0e0e0" stroke="black" points="365.628,-787.544 365.628,-802.456 346.222,-813 318.778,-813 299.372,-802.456 299.372,-787.544 318.778,-777 346.222,-777 365.628,-787.544"/>
<text text-anchor="middle" x="332.5" y="-791.3" font-family="Times,serif" font-size="14.00">pool1</text>
</g>
<!-- pool1&#45;&gt;conv2 (Convolution) kernel size: 5 stride: 1 pad: 0 -->
<g id="edge9" class="edge"><title>pool1&#45;&gt;conv2 (Convolution) kernel size: 5 stride: 1 pad: 0</title>
<path fill="none" stroke="black" d="M332.5,-776.692C332.5,-768.612 332.5,-758.801 332.5,-749.76"/>
<polygon fill="black" stroke="black" points="336,-749.649 332.5,-739.649 329,-749.649 336,-749.649"/>
</g>
<!-- data -->
<g id="node6" class="node"><title>data</title>
<polygon fill="#e0e0e0" stroke="black" points="359.873,-1130.54 359.873,-1145.46 343.838,-1156 321.162,-1156 305.127,-1145.46 305.127,-1130.54 321.162,-1120 343.838,-1120 359.873,-1130.54"/>
<text text-anchor="middle" x="332.5" y="-1134.3" font-family="Times,serif" font-size="14.00">data</text>
</g>
<!-- data&#45;&gt;conv1 (Convolution) kernel size: 5 stride: 1 pad: 0 -->
<g id="edge5" class="edge"><title>data&#45;&gt;conv1 (Convolution) kernel size: 5 stride: 1 pad: 0</title>
<path fill="none" stroke="black" d="M332.5,-1119.89C332.5,-1103.12 332.5,-1077.3 332.5,-1057.71"/>
<polygon fill="black" stroke="black" points="336,-1057.57 332.5,-1047.57 329,-1057.57 336,-1057.57"/>
</g>
<!-- pool2 -->
<g id="node7" class="node"><title>pool2</title>
<polygon fill="#e0e0e0" stroke="black" points="365.628,-479.544 365.628,-494.456 346.222,-505 318.778,-505 299.372,-494.456 299.372,-479.544 318.778,-469 346.222,-469 365.628,-479.544"/>
<text text-anchor="middle" x="332.5" y="-483.3" font-family="Times,serif" font-size="14.00">pool2</text>
</g>
<!-- ip1 (InnerProduct) -->
<g id="node8" class="node"><title>ip1 (InnerProduct)</title>
<polygon fill="#cc33ff" stroke="black" points="274,-395.5 274,-431.5 391,-431.5 391,-395.5 274,-395.5"/>
<text text-anchor="middle" x="332.5" y="-409.8" font-family="Times,serif" font-size="14.00">ip1 (InnerProduct)</text>
</g>
<!-- pool2&#45;&gt;ip1 (InnerProduct) -->
<g id="edge13" class="edge"><title>pool2&#45;&gt;ip1 (InnerProduct)</title>
<path fill="none" stroke="black" d="M332.5,-468.692C332.5,-460.612 332.5,-450.801 332.5,-441.76"/>
<polygon fill="black" stroke="black" points="336,-441.649 332.5,-431.649 329,-441.649 336,-441.649"/>
</g>
<!-- ip1 -->
<g id="node15" class="node"><title>ip1</title>
<polygon fill="#e0e0e0" stroke="black" points="359.5,-318.544 359.5,-333.456 343.684,-344 321.316,-344 305.5,-333.456 305.5,-318.544 321.316,-308 343.684,-308 359.5,-318.544"/>
<text text-anchor="middle" x="332.5" y="-322.3" font-family="Times,serif" font-size="14.00">ip1</text>
</g>
<!-- ip1 (InnerProduct)&#45;&gt;ip1 -->
<g id="edge14" class="edge"><title>ip1 (InnerProduct)&#45;&gt;ip1</title>
<path fill="none" stroke="black" d="M332.5,-395.198C332.5,-383.493 332.5,-367.786 332.5,-354.397"/>
<polygon fill="black" stroke="black" points="336,-354.276 332.5,-344.276 329,-354.277 336,-354.276"/>
<text text-anchor="middle" x="343" y="-365.8" font-family="Times,serif" font-size="14.00">500</text>
</g>
<!-- ip2 (InnerProduct) -->
<g id="node9" class="node"><title>ip2 (InnerProduct)</title>
<polygon fill="#cc33ff" stroke="black" points="152,-234.5 152,-270.5 269,-270.5 269,-234.5 152,-234.5"/>
<text text-anchor="middle" x="210.5" y="-248.8" font-family="Times,serif" font-size="14.00">ip2 (InnerProduct)</text>
</g>
<!-- ip2 -->
<g id="node19" class="node"><title>ip2</title>
<polygon fill="#e0e0e0" stroke="black" points="237.5,-157.544 237.5,-172.456 221.684,-183 199.316,-183 183.5,-172.456 183.5,-157.544 199.316,-147 221.684,-147 237.5,-157.544"/>
<text text-anchor="middle" x="210.5" y="-161.3" font-family="Times,serif" font-size="14.00">ip2</text>
</g>
<!-- ip2 (InnerProduct)&#45;&gt;ip2 -->
<g id="edge18" class="edge"><title>ip2 (InnerProduct)&#45;&gt;ip2</title>
<path fill="none" stroke="black" d="M210.5,-234.198C210.5,-222.493 210.5,-206.786 210.5,-193.397"/>
<polygon fill="black" stroke="black" points="214,-193.276 210.5,-183.276 207,-193.277 214,-193.276"/>
<text text-anchor="middle" x="217.5" y="-204.8" font-family="Times,serif" font-size="14.00">10</text>
</g>
<!-- pool1 (MAX Pooling) kernel size: 2 stride: 2 pad: 0 -->
<g id="node17" class="node"><title>pool1 (MAX Pooling) kernel size: 2 stride: 2 pad: 0</title>
<polygon fill="#ff9900" stroke="black" points="182.5,-850.5 182.5,-886.5 482.5,-886.5 482.5,-850.5 182.5,-850.5"/>
<text text-anchor="middle" x="332.5" y="-864.8" font-family="Times,serif" font-size="14.00">pool1 (MAX Pooling) kernel size: 2 stride: 2 pad: 0</text>
</g>
<!-- conv1&#45;&gt;pool1 (MAX Pooling) kernel size: 2 stride: 2 pad: 0 -->
<g id="edge7" class="edge"><title>conv1&#45;&gt;pool1 (MAX Pooling) kernel size: 2 stride: 2 pad: 0</title>
<path fill="none" stroke="black" d="M332.5,-923.692C332.5,-915.612 332.5,-905.801 332.5,-896.76"/>
<polygon fill="black" stroke="black" points="336,-896.649 332.5,-886.649 329,-896.649 336,-896.649"/>
</g>
<!-- label -->
<g id="node11" class="node"><title>label</title>
<polygon fill="#e0e0e0" stroke="black" points="149.502,-1076.54 149.502,-1091.46 131.927,-1102 107.073,-1102 89.4976,-1091.46 89.4976,-1076.54 107.073,-1066 131.927,-1066 149.502,-1076.54"/>
<text text-anchor="middle" x="119.5" y="-1080.3" font-family="Times,serif" font-size="14.00">label</text>
</g>
<!-- label&#45;&gt;accuracy (Accuracy) -->
<g id="edge20" class="edge"><title>label&#45;&gt;accuracy (Accuracy)</title>
<path fill="none" stroke="black" d="M104.749,-1066.94C89.6864,-1048.82 68.5,-1017.77 68.5,-986.5 68.5,-986.5 68.5,-986.5 68.5,-164 68.5,-149.285 67.645,-132.893 66.7255,-119.52"/>
<polygon fill="black" stroke="black" points="70.2151,-119.248 65.9895,-109.532 63.234,-119.762 70.2151,-119.248"/>
</g>
<!-- label&#45;&gt;loss (SoftmaxWithLoss) -->
<g id="edge23" class="edge"><title>label&#45;&gt;loss (SoftmaxWithLoss)</title>
<path fill="none" stroke="black" d="M120.068,-1065.92C120.659,-1046.63 121.5,-1014.32 121.5,-986.5 121.5,-986.5 121.5,-986.5 121.5,-164 121.5,-141.449 138.48,-125.37 158.516,-114.248"/>
<polygon fill="black" stroke="black" points="160.249,-117.293 167.567,-109.631 157.068,-111.057 160.249,-117.293"/>
</g>
<!-- pool2 (MAX Pooling) kernel size: 2 stride: 2 pad: 0 -->
<g id="node16" class="node"><title>pool2 (MAX Pooling) kernel size: 2 stride: 2 pad: 0</title>
<polygon fill="#ff9900" stroke="black" points="182.5,-542.5 182.5,-578.5 482.5,-578.5 482.5,-542.5 182.5,-542.5"/>
<text text-anchor="middle" x="332.5" y="-556.8" font-family="Times,serif" font-size="14.00">pool2 (MAX Pooling) kernel size: 2 stride: 2 pad: 0</text>
</g>
<!-- conv2&#45;&gt;pool2 (MAX Pooling) kernel size: 2 stride: 2 pad: 0 -->
<g id="edge11" class="edge"><title>conv2&#45;&gt;pool2 (MAX Pooling) kernel size: 2 stride: 2 pad: 0</title>
<path fill="none" stroke="black" d="M332.5,-615.692C332.5,-607.612 332.5,-597.801 332.5,-588.76"/>
<polygon fill="black" stroke="black" points="336,-588.649 332.5,-578.649 329,-588.649 336,-588.649"/>
</g>
<!-- mnist (Data) -->
<g id="node14" class="node"><title>mnist (Data)</title>
<polygon fill="#6495ed" stroke="black" points="184.5,-1207.5 184.5,-1243.5 270.5,-1243.5 270.5,-1207.5 184.5,-1207.5"/>
<text text-anchor="middle" x="227.5" y="-1221.8" font-family="Times,serif" font-size="14.00">mnist (Data)</text>
</g>
<!-- mnist (Data)&#45;&gt;data -->
<g id="edge1" class="edge"><title>mnist (Data)&#45;&gt;data</title>
<path fill="none" stroke="black" d="M237.155,-1207.47C243.807,-1196.85 253.426,-1183.46 264.5,-1174 274.856,-1165.15 287.831,-1157.78 299.663,-1152.11"/>
<polygon fill="black" stroke="black" points="301.181,-1155.27 308.835,-1147.94 298.283,-1148.9 301.181,-1155.27"/>
<text text-anchor="middle" x="289" y="-1177.8" font-family="Times,serif" font-size="14.00">Batch 64</text>
</g>
<!-- mnist (Data)&#45;&gt;data -->
<g id="edge3" class="edge"><title>mnist (Data)&#45;&gt;data</title>
<path fill="none" stroke="black" d="M270.511,-1214.4C285.717,-1209.01 301.904,-1200.93 313.5,-1189 319.666,-1182.66 323.874,-1174.11 326.728,-1165.88"/>
<polygon fill="black" stroke="black" points="330.121,-1166.75 329.577,-1156.16 323.404,-1164.77 330.121,-1166.75"/>
<text text-anchor="middle" x="350.5" y="-1177.8" font-family="Times,serif" font-size="14.00">Batch 100</text>
</g>
<!-- mnist (Data)&#45;&gt;label -->
<g id="edge2" class="edge"><title>mnist (Data)&#45;&gt;label</title>
<path fill="none" stroke="black" d="M212.079,-1207.4C207.015,-1201.64 201.424,-1195.12 196.5,-1189 175.457,-1162.85 152.747,-1131.8 137.485,-1110.47"/>
<polygon fill="black" stroke="black" points="140.279,-1108.36 131.625,-1102.25 134.579,-1112.43 140.279,-1108.36"/>
<text text-anchor="middle" x="221" y="-1177.8" font-family="Times,serif" font-size="14.00">Batch 64</text>
</g>
<!-- mnist (Data)&#45;&gt;label -->
<g id="edge4" class="edge"><title>mnist (Data)&#45;&gt;label</title>
<path fill="none" stroke="black" d="M184.474,-1220.29C163.611,-1215.89 140.167,-1206.98 126.5,-1189 109.955,-1167.24 110.5,-1134.94 113.726,-1112.12"/>
<polygon fill="black" stroke="black" points="117.209,-1112.51 115.403,-1102.07 110.304,-1111.36 117.209,-1112.51"/>
<text text-anchor="middle" x="154.5" y="-1177.8" font-family="Times,serif" font-size="14.00">Batch 100</text>
</g>
<!-- ip1&#45;&gt;ip2 (InnerProduct) -->
<g id="edge17" class="edge"><title>ip1&#45;&gt;ip2 (InnerProduct)</title>
<path fill="none" stroke="black" d="M312.899,-313.512C295.571,-303.357 269.805,-288.257 248.455,-275.744"/>
<polygon fill="black" stroke="black" points="250.01,-272.599 239.613,-270.562 246.471,-278.638 250.01,-272.599"/>
</g>
<!-- relu1 (ReLU) -->
<g id="node18" class="node"><title>relu1 (ReLU)</title>
<polygon fill="#90ee90" stroke="black" points="287.5,-234.5 287.5,-270.5 377.5,-270.5 377.5,-234.5 287.5,-234.5"/>
<text text-anchor="middle" x="332.5" y="-248.8" font-family="Times,serif" font-size="14.00">relu1 (ReLU)</text>
</g>
<!-- ip1&#45;&gt;relu1 (ReLU) -->
<g id="edge15" class="edge"><title>ip1&#45;&gt;relu1 (ReLU)</title>
<path fill="none" stroke="black" d="M326.622,-307.692C325.782,-299.612 325.549,-289.801 325.922,-280.76"/>
<polygon fill="black" stroke="black" points="329.423,-280.871 326.638,-270.649 322.44,-280.376 329.423,-280.871"/>
</g>
<!-- pool2 (MAX Pooling) kernel size: 2 stride: 2 pad: 0&#45;&gt;pool2 -->
<g id="edge12" class="edge"><title>pool2 (MAX Pooling) kernel size: 2 stride: 2 pad: 0&#45;&gt;pool2</title>
<path fill="none" stroke="black" d="M332.5,-542.192C332.5,-534.112 332.5,-524.301 332.5,-515.26"/>
<polygon fill="black" stroke="black" points="336,-515.149 332.5,-505.149 329,-515.149 336,-515.149"/>
</g>
<!-- pool1 (MAX Pooling) kernel size: 2 stride: 2 pad: 0&#45;&gt;pool1 -->
<g id="edge8" class="edge"><title>pool1 (MAX Pooling) kernel size: 2 stride: 2 pad: 0&#45;&gt;pool1</title>
<path fill="none" stroke="black" d="M332.5,-850.192C332.5,-842.112 332.5,-832.301 332.5,-823.26"/>
<polygon fill="black" stroke="black" points="336,-823.149 332.5,-813.149 329,-823.149 336,-823.149"/>
</g>
<!-- relu1 (ReLU)&#45;&gt;ip1 -->
<g id="edge16" class="edge"><title>relu1 (ReLU)&#45;&gt;ip1</title>
<path fill="none" stroke="black" d="M338.362,-270.649C339.209,-278.706 339.45,-288.51 339.085,-297.562"/>
<polygon fill="black" stroke="black" points="335.583,-297.472 338.378,-307.692 342.566,-297.96 335.583,-297.472"/>
</g>
<!-- ip2&#45;&gt;accuracy (Accuracy) -->
<g id="edge19" class="edge"><title>ip2&#45;&gt;accuracy (Accuracy)</title>
<path fill="none" stroke="black" d="M189.27,-153.603C168.188,-143.279 135.237,-127.142 108.491,-114.043"/>
<polygon fill="black" stroke="black" points="109.839,-110.806 99.3185,-109.552 106.76,-117.093 109.839,-110.806"/>
</g>
<!-- ip2&#45;&gt;loss (SoftmaxWithLoss) -->
<g id="edge22" class="edge"><title>ip2&#45;&gt;loss (SoftmaxWithLoss)</title>
<path fill="none" stroke="black" d="M213.405,-146.692C214.761,-138.612 216.407,-128.801 217.925,-119.76"/>
<polygon fill="black" stroke="black" points="221.418,-120.09 219.622,-109.649 214.515,-118.931 221.418,-120.09"/>
</g>
</g>
</svg>
