<?xml version="1.0" encoding="UTF-8" standalone="no"?>
<!DOCTYPE svg PUBLIC "-//W3C//DTD SVG 1.1//EN"
 "http://www.w3.org/Graphics/SVG/1.1/DTD/svg11.dtd">
<!-- Generated by graphviz version 2.38.0 (20140413.2041)
 -->
<!-- Title: lrcn_caffenet_to_lstm Pages: 1 -->
<svg width="1196pt" height="2522pt"
 viewBox="0.00 0.00 1195.76 2522.00" xmlns="http://www.w3.org/2000/svg" xmlns:xlink="http://www.w3.org/1999/xlink">
<g id="graph0" class="graph" transform="scale(1 1) rotate(0) translate(4 2518)">
<title>lrcn_caffenet_to_lstm</title>
<polygon fill="white" stroke="none" points="-4,4 -4,-2518 1191.76,-2518 1191.76,4 -4,4"/>
<!-- lstm1 -->
<g id="node1" class="node"><title>lstm1</title>
<polygon fill="#e0e0e0" stroke="black" points="975.628,-465.544 975.628,-480.456 956.222,-491 928.778,-491 909.372,-480.456 909.372,-465.544 928.778,-455 956.222,-455 975.628,-465.544"/>
<text text-anchor="middle" x="942.5" y="-469.3" font-family="Times,serif" font-size="14.00">lstm1</text>
</g>
<!-- lstm2 (LSTM) -->
<g id="node18" class="node"><title>lstm2 (LSTM)</title>
<polygon fill="#6495ed" stroke="black" points="829,-381.5 829,-417.5 926,-417.5 926,-381.5 829,-381.5"/>
<text text-anchor="middle" x="877.5" y="-395.8" font-family="Times,serif" font-size="14.00">lstm2 (LSTM)</text>
</g>
<!-- lstm1&#45;&gt;lstm2 (LSTM) -->
<g id="edge50" class="edge"><title>lstm1&#45;&gt;lstm2 (LSTM)</title>
<path fill="none" stroke="black" d="M927.424,-455.417C919.375,-446.563 909.302,-435.482 900.315,-425.597"/>
<polygon fill="black" stroke="black" points="902.717,-423.036 893.401,-417.991 897.538,-427.745 902.717,-423.036"/>
</g>
<!-- conv4 -->
<g id="node2" class="node"><title>conv4</title>
<polygon fill="#e0e0e0" stroke="black" points="819.85,-1256.54 819.85,-1271.46 799.143,-1282 769.857,-1282 749.15,-1271.46 749.15,-1256.54 769.857,-1246 799.143,-1246 819.85,-1256.54"/>
<text text-anchor="middle" x="784.5" y="-1260.3" font-family="Times,serif" font-size="14.00">conv4</text>
</g>
<!-- conv5 (Convolution) kernel size: 3 stride: 1 pad: 1 -->
<g id="node6" class="node"><title>conv5 (Convolution) kernel size: 3 stride: 1 pad: 1</title>
<polygon fill="#ff5050" stroke="black" points="429.5,-1172.5 429.5,-1208.5 721.5,-1208.5 721.5,-1172.5 429.5,-1172.5"/>
<text text-anchor="middle" x="575.5" y="-1186.8" font-family="Times,serif" font-size="14.00">conv5 (Convolution) kernel size: 3 stride: 1 pad: 1</text>
</g>
<!-- conv4&#45;&gt;conv5 (Convolution) kernel size: 3 stride: 1 pad: 1 -->
<g id="edge25" class="edge"><title>conv4&#45;&gt;conv5 (Convolution) kernel size: 3 stride: 1 pad: 1</title>
<path fill="none" stroke="black" d="M755.439,-1253.06C724.419,-1242.45 674.409,-1225.34 634.975,-1211.85"/>
<polygon fill="black" stroke="black" points="635.79,-1208.43 625.196,-1208.5 633.524,-1215.05 635.79,-1208.43"/>
</g>
<!-- relu4 (ReLU) -->
<g id="node44" class="node"><title>relu4 (ReLU)</title>
<polygon fill="#90ee90" stroke="black" points="739.5,-1172.5 739.5,-1208.5 829.5,-1208.5 829.5,-1172.5 739.5,-1172.5"/>
<text text-anchor="middle" x="784.5" y="-1186.8" font-family="Times,serif" font-size="14.00">relu4 (ReLU)</text>
</g>
<!-- conv4&#45;&gt;relu4 (ReLU) -->
<g id="edge23" class="edge"><title>conv4&#45;&gt;relu4 (ReLU)</title>
<path fill="none" stroke="black" d="M778.622,-1245.69C777.782,-1237.61 777.549,-1227.8 777.922,-1218.76"/>
<polygon fill="black" stroke="black" points="781.423,-1218.87 778.638,-1208.65 774.44,-1218.38 781.423,-1218.87"/>
</g>
<!-- data -->
<g id="node3" class="node"><title>data</title>
<polygon fill="#e0e0e0" stroke="black" points="176.873,-2488.54 176.873,-2503.46 160.838,-2514 138.162,-2514 122.127,-2503.46 122.127,-2488.54 138.162,-2478 160.838,-2478 176.873,-2488.54"/>
<text text-anchor="middle" x="149.5" y="-2492.3" font-family="Times,serif" font-size="14.00">data</text>
</g>
<!-- conv1 (Convolution) kernel size: 11 stride: 4 pad: 0 -->
<g id="node11" class="node"><title>conv1 (Convolution) kernel size: 11 stride: 4 pad: 0</title>
<polygon fill="#ff5050" stroke="black" points="0,-2404.5 0,-2440.5 299,-2440.5 299,-2404.5 0,-2404.5"/>
<text text-anchor="middle" x="149.5" y="-2418.8" font-family="Times,serif" font-size="14.00">conv1 (Convolution) kernel size: 11 stride: 4 pad: 0</text>
</g>
<!-- data&#45;&gt;conv1 (Convolution) kernel size: 11 stride: 4 pad: 0 -->
<g id="edge1" class="edge"><title>data&#45;&gt;conv1 (Convolution) kernel size: 11 stride: 4 pad: 0</title>
<path fill="none" stroke="black" d="M149.5,-2477.69C149.5,-2469.61 149.5,-2459.8 149.5,-2450.76"/>
<polygon fill="black" stroke="black" points="153,-2450.65 149.5,-2440.65 146,-2450.65 153,-2450.65"/>
</g>
<!-- pool2 -->
<g id="node4" class="node"><title>pool2</title>
<polygon fill="#e0e0e0" stroke="black" points="608.628,-1725.54 608.628,-1740.46 589.222,-1751 561.778,-1751 542.372,-1740.46 542.372,-1725.54 561.778,-1715 589.222,-1715 608.628,-1725.54"/>
<text text-anchor="middle" x="575.5" y="-1729.3" font-family="Times,serif" font-size="14.00">pool2</text>
</g>
<!-- norm2 (LRN) -->
<g id="node20" class="node"><title>norm2 (LRN)</title>
<polygon fill="#6495ed" stroke="black" points="529.5,-1641.5 529.5,-1677.5 621.5,-1677.5 621.5,-1641.5 529.5,-1641.5"/>
<text text-anchor="middle" x="575.5" y="-1655.8" font-family="Times,serif" font-size="14.00">norm2 (LRN)</text>
</g>
<!-- pool2&#45;&gt;norm2 (LRN) -->
<g id="edge15" class="edge"><title>pool2&#45;&gt;norm2 (LRN)</title>
<path fill="none" stroke="black" d="M575.5,-1714.69C575.5,-1706.61 575.5,-1696.8 575.5,-1687.76"/>
<polygon fill="black" stroke="black" points="579,-1687.65 575.5,-1677.65 572,-1687.65 579,-1687.65"/>
</g>
<!-- relu7 (ReLU) -->
<g id="node5" class="node"><title>relu7 (ReLU)</title>
<polygon fill="#90ee90" stroke="black" points="499.5,-542.5 499.5,-578.5 589.5,-578.5 589.5,-542.5 499.5,-542.5"/>
<text text-anchor="middle" x="544.5" y="-556.8" font-family="Times,serif" font-size="14.00">relu7 (ReLU)</text>
</g>
<!-- fc7 -->
<g id="node12" class="node"><title>fc7</title>
<polygon fill="#e0e0e0" stroke="black" points="693.5,-626.544 693.5,-641.456 677.684,-652 655.316,-652 639.5,-641.456 639.5,-626.544 655.316,-616 677.684,-616 693.5,-626.544"/>
<text text-anchor="middle" x="666.5" y="-630.3" font-family="Times,serif" font-size="14.00">fc7</text>
</g>
<!-- relu7 (ReLU)&#45;&gt;fc7 -->
<g id="edge40" class="edge"><title>relu7 (ReLU)&#45;&gt;fc7</title>
<path fill="none" stroke="black" d="M579.499,-578.581C599.053,-589.372 622.899,-603.317 640.752,-614.39"/>
<polygon fill="black" stroke="black" points="639.159,-617.523 649.487,-619.886 642.887,-611.598 639.159,-617.523"/>
</g>
<!-- conv5 -->
<g id="node21" class="node"><title>conv5</title>
<polygon fill="#e0e0e0" stroke="black" points="610.85,-1095.54 610.85,-1110.46 590.143,-1121 560.857,-1121 540.15,-1110.46 540.15,-1095.54 560.857,-1085 590.143,-1085 610.85,-1095.54"/>
<text text-anchor="middle" x="575.5" y="-1099.3" font-family="Times,serif" font-size="14.00">conv5</text>
</g>
<!-- conv5 (Convolution) kernel size: 3 stride: 1 pad: 1&#45;&gt;conv5 -->
<g id="edge26" class="edge"><title>conv5 (Convolution) kernel size: 3 stride: 1 pad: 1&#45;&gt;conv5</title>
<path fill="none" stroke="black" d="M575.5,-1172.2C575.5,-1160.49 575.5,-1144.79 575.5,-1131.4"/>
<polygon fill="black" stroke="black" points="579,-1131.28 575.5,-1121.28 572,-1131.28 579,-1131.28"/>
<text text-anchor="middle" x="586" y="-1142.8" font-family="Times,serif" font-size="14.00">256</text>
</g>
<!-- relu5 (ReLU) -->
<g id="node7" class="node"><title>relu5 (ReLU)</title>
<polygon fill="#90ee90" stroke="black" points="530.5,-1011.5 530.5,-1047.5 620.5,-1047.5 620.5,-1011.5 530.5,-1011.5"/>
<text text-anchor="middle" x="575.5" y="-1025.8" font-family="Times,serif" font-size="14.00">relu5 (ReLU)</text>
</g>
<!-- relu5 (ReLU)&#45;&gt;conv5 -->
<g id="edge28" class="edge"><title>relu5 (ReLU)&#45;&gt;conv5</title>
<path fill="none" stroke="black" d="M581.362,-1047.65C582.209,-1055.71 582.45,-1065.51 582.085,-1074.56"/>
<polygon fill="black" stroke="black" points="578.583,-1074.47 581.378,-1084.69 585.566,-1074.96 578.583,-1074.47"/>
</g>
<!-- pool5 -->
<g id="node8" class="node"><title>pool5</title>
<polygon fill="#e0e0e0" stroke="black" points="821.628,-948.544 821.628,-963.456 802.222,-974 774.778,-974 755.372,-963.456 755.372,-948.544 774.778,-938 802.222,-938 821.628,-948.544"/>
<text text-anchor="middle" x="788.5" y="-952.3" font-family="Times,serif" font-size="14.00">pool5</text>
</g>
<!-- fc6 (InnerProduct) -->
<g id="node36" class="node"><title>fc6 (InnerProduct)</title>
<polygon fill="#cc33ff" stroke="black" points="730,-864.5 730,-900.5 847,-900.5 847,-864.5 730,-864.5"/>
<text text-anchor="middle" x="788.5" y="-878.8" font-family="Times,serif" font-size="14.00">fc6 (InnerProduct)</text>
</g>
<!-- pool5&#45;&gt;fc6 (InnerProduct) -->
<g id="edge31" class="edge"><title>pool5&#45;&gt;fc6 (InnerProduct)</title>
<path fill="none" stroke="black" d="M788.5,-937.692C788.5,-929.612 788.5,-919.801 788.5,-910.76"/>
<polygon fill="black" stroke="black" points="792,-910.649 788.5,-900.649 785,-910.649 792,-910.649"/>
</g>
<!-- pool2 (MAX Pooling) kernel size: 3 stride: 2 pad: 0 -->
<g id="node9" class="node"><title>pool2 (MAX Pooling) kernel size: 3 stride: 2 pad: 0</title>
<polygon fill="#ff9900" stroke="black" points="425.5,-1788.5 425.5,-1824.5 725.5,-1824.5 725.5,-1788.5 425.5,-1788.5"/>
<text text-anchor="middle" x="575.5" y="-1802.8" font-family="Times,serif" font-size="14.00">pool2 (MAX Pooling) kernel size: 3 stride: 2 pad: 0</text>
</g>
<!-- pool2 (MAX Pooling) kernel size: 3 stride: 2 pad: 0&#45;&gt;pool2 -->
<g id="edge14" class="edge"><title>pool2 (MAX Pooling) kernel size: 3 stride: 2 pad: 0&#45;&gt;pool2</title>
<path fill="none" stroke="black" d="M575.5,-1788.19C575.5,-1780.11 575.5,-1770.3 575.5,-1761.26"/>
<polygon fill="black" stroke="black" points="579,-1761.15 575.5,-1751.15 572,-1761.15 579,-1761.15"/>
</g>
<!-- pool5 (MAX Pooling) kernel size: 3 stride: 2 pad: 0 -->
<g id="node10" class="node"><title>pool5 (MAX Pooling) kernel size: 3 stride: 2 pad: 0</title>
<polygon fill="#ff9900" stroke="black" points="638.5,-1011.5 638.5,-1047.5 938.5,-1047.5 938.5,-1011.5 638.5,-1011.5"/>
<text text-anchor="middle" x="788.5" y="-1025.8" font-family="Times,serif" font-size="14.00">pool5 (MAX Pooling) kernel size: 3 stride: 2 pad: 0</text>
</g>
<!-- pool5 (MAX Pooling) kernel size: 3 stride: 2 pad: 0&#45;&gt;pool5 -->
<g id="edge30" class="edge"><title>pool5 (MAX Pooling) kernel size: 3 stride: 2 pad: 0&#45;&gt;pool5</title>
<path fill="none" stroke="black" d="M788.5,-1011.19C788.5,-1003.11 788.5,-993.301 788.5,-984.26"/>
<polygon fill="black" stroke="black" points="792,-984.149 788.5,-974.149 785,-984.149 792,-984.149"/>
</g>
<!-- conv1 -->
<g id="node32" class="node"><title>conv1</title>
<polygon fill="#e0e0e0" stroke="black" points="184.85,-2327.54 184.85,-2342.46 164.143,-2353 134.857,-2353 114.15,-2342.46 114.15,-2327.54 134.857,-2317 164.143,-2317 184.85,-2327.54"/>
<text text-anchor="middle" x="149.5" y="-2331.3" font-family="Times,serif" font-size="14.00">conv1</text>
</g>
<!-- conv1 (Convolution) kernel size: 11 stride: 4 pad: 0&#45;&gt;conv1 -->
<g id="edge2" class="edge"><title>conv1 (Convolution) kernel size: 11 stride: 4 pad: 0&#45;&gt;conv1</title>
<path fill="none" stroke="black" d="M149.5,-2404.2C149.5,-2392.49 149.5,-2376.79 149.5,-2363.4"/>
<polygon fill="black" stroke="black" points="153,-2363.28 149.5,-2353.28 146,-2363.28 153,-2363.28"/>
<text text-anchor="middle" x="156.5" y="-2374.8" font-family="Times,serif" font-size="14.00">96</text>
</g>
<!-- fc7&#45;&gt;relu7 (ReLU) -->
<g id="edge39" class="edge"><title>fc7&#45;&gt;relu7 (ReLU)</title>
<path fill="none" stroke="black" d="M644.691,-623.058C625.543,-612.941 597.718,-596.918 576.172,-583.756"/>
<polygon fill="black" stroke="black" points="578.01,-580.778 567.663,-578.501 574.332,-586.733 578.01,-580.778"/>
</g>
<!-- fc8 (InnerProduct) -->
<g id="node25" class="node"><title>fc8 (InnerProduct)</title>
<polygon fill="#cc33ff" stroke="black" points="608,-542.5 608,-578.5 725,-578.5 725,-542.5 608,-542.5"/>
<text text-anchor="middle" x="666.5" y="-556.8" font-family="Times,serif" font-size="14.00">fc8 (InnerProduct)</text>
</g>
<!-- fc7&#45;&gt;fc8 (InnerProduct) -->
<g id="edge43" class="edge"><title>fc7&#45;&gt;fc8 (InnerProduct)</title>
<path fill="none" stroke="black" d="M666.5,-615.692C666.5,-607.612 666.5,-597.801 666.5,-588.76"/>
<polygon fill="black" stroke="black" points="670,-588.649 666.5,-578.649 663,-588.649 670,-588.649"/>
</g>
<!-- drop7 (Dropout) -->
<g id="node45" class="node"><title>drop7 (Dropout)</title>
<polygon fill="#90ee90" stroke="black" points="743.5,-542.5 743.5,-578.5 849.5,-578.5 849.5,-542.5 743.5,-542.5"/>
<text text-anchor="middle" x="796.5" y="-556.8" font-family="Times,serif" font-size="14.00">drop7 (Dropout)</text>
</g>
<!-- fc7&#45;&gt;drop7 (Dropout) -->
<g id="edge41" class="edge"><title>fc7&#45;&gt;drop7 (Dropout)</title>
<path fill="none" stroke="black" d="M684.426,-620.217C701.548,-609.969 727.803,-595.354 750.65,-583.27"/>
<polygon fill="black" stroke="black" points="752.31,-586.352 759.539,-578.607 749.058,-580.153 752.31,-586.352"/>
</g>
<!-- norm1 (LRN) -->
<g id="node13" class="node"><title>norm1 (LRN)</title>
<polygon fill="#6495ed" stroke="black" points="316.5,-2096.5 316.5,-2132.5 408.5,-2132.5 408.5,-2096.5 316.5,-2096.5"/>
<text text-anchor="middle" x="362.5" y="-2110.8" font-family="Times,serif" font-size="14.00">norm1 (LRN)</text>
</g>
<!-- norm1 -->
<g id="node42" class="node"><title>norm1</title>
<polygon fill="#e0e0e0" stroke="black" points="399.571,-2033.54 399.571,-2048.46 377.855,-2059 347.145,-2059 325.429,-2048.46 325.429,-2033.54 347.145,-2023 377.855,-2023 399.571,-2033.54"/>
<text text-anchor="middle" x="362.5" y="-2037.3" font-family="Times,serif" font-size="14.00">norm1</text>
</g>
<!-- norm1 (LRN)&#45;&gt;norm1 -->
<g id="edge8" class="edge"><title>norm1 (LRN)&#45;&gt;norm1</title>
<path fill="none" stroke="black" d="M362.5,-2096.19C362.5,-2088.11 362.5,-2078.3 362.5,-2069.26"/>
<polygon fill="black" stroke="black" points="366,-2069.15 362.5,-2059.15 359,-2069.15 366,-2069.15"/>
</g>
<!-- embedding (Embed) -->
<g id="node14" class="node"><title>embedding (Embed)</title>
<polygon fill="#6495ed" stroke="black" points="1010,-703.5 1010,-739.5 1139,-739.5 1139,-703.5 1010,-703.5"/>
<text text-anchor="middle" x="1074.5" y="-717.8" font-family="Times,serif" font-size="14.00">embedding (Embed)</text>
</g>
<!-- embedded_input_sentence -->
<g id="node39" class="node"><title>embedded_input_sentence</title>
<polygon fill="#e0e0e0" stroke="black" points="1187.53,-626.544 1187.53,-641.456 1121.32,-652 1027.68,-652 961.475,-641.456 961.475,-626.544 1027.68,-616 1121.32,-616 1187.53,-626.544"/>
<text text-anchor="middle" x="1074.5" y="-630.3" font-family="Times,serif" font-size="14.00">embedded_input_sentence</text>
</g>
<!-- embedding (Embed)&#45;&gt;embedded_input_sentence -->
<g id="edge46" class="edge"><title>embedding (Embed)&#45;&gt;embedded_input_sentence</title>
<path fill="none" stroke="black" d="M1074.5,-703.198C1074.5,-691.493 1074.5,-675.786 1074.5,-662.397"/>
<polygon fill="black" stroke="black" points="1078,-662.276 1074.5,-652.276 1071,-662.277 1078,-662.276"/>
</g>
<!-- relu2 (ReLU) -->
<g id="node15" class="node"><title>relu2 (ReLU)</title>
<polygon fill="#90ee90" stroke="black" points="317.5,-1788.5 317.5,-1824.5 407.5,-1824.5 407.5,-1788.5 317.5,-1788.5"/>
<text text-anchor="middle" x="362.5" y="-1802.8" font-family="Times,serif" font-size="14.00">relu2 (ReLU)</text>
</g>
<!-- conv2 -->
<g id="node33" class="node"><title>conv2</title>
<polygon fill="#e0e0e0" stroke="black" points="397.85,-1872.54 397.85,-1887.46 377.143,-1898 347.857,-1898 327.15,-1887.46 327.15,-1872.54 347.857,-1862 377.143,-1862 397.85,-1872.54"/>
<text text-anchor="middle" x="362.5" y="-1876.3" font-family="Times,serif" font-size="14.00">conv2</text>
</g>
<!-- relu2 (ReLU)&#45;&gt;conv2 -->
<g id="edge12" class="edge"><title>relu2 (ReLU)&#45;&gt;conv2</title>
<path fill="none" stroke="black" d="M368.362,-1824.65C369.209,-1832.71 369.45,-1842.51 369.085,-1851.56"/>
<polygon fill="black" stroke="black" points="365.583,-1851.47 368.378,-1861.69 372.566,-1851.96 365.583,-1851.47"/>
</g>
<!-- norm2 -->
<g id="node16" class="node"><title>norm2</title>
<polygon fill="#e0e0e0" stroke="black" points="612.571,-1578.54 612.571,-1593.46 590.855,-1604 560.145,-1604 538.429,-1593.46 538.429,-1578.54 560.145,-1568 590.855,-1568 612.571,-1578.54"/>
<text text-anchor="middle" x="575.5" y="-1582.3" font-family="Times,serif" font-size="14.00">norm2</text>
</g>
<!-- conv3 (Convolution) kernel size: 3 stride: 1 pad: 1 -->
<g id="node48" class="node"><title>conv3 (Convolution) kernel size: 3 stride: 1 pad: 1</title>
<polygon fill="#ff5050" stroke="black" points="429.5,-1494.5 429.5,-1530.5 721.5,-1530.5 721.5,-1494.5 429.5,-1494.5"/>
<text text-anchor="middle" x="575.5" y="-1508.8" font-family="Times,serif" font-size="14.00">conv3 (Convolution) kernel size: 3 stride: 1 pad: 1</text>
</g>
<!-- norm2&#45;&gt;conv3 (Convolution) kernel size: 3 stride: 1 pad: 1 -->
<g id="edge17" class="edge"><title>norm2&#45;&gt;conv3 (Convolution) kernel size: 3 stride: 1 pad: 1</title>
<path fill="none" stroke="black" d="M575.5,-1567.69C575.5,-1559.61 575.5,-1549.8 575.5,-1540.76"/>
<polygon fill="black" stroke="black" points="579,-1540.65 575.5,-1530.65 572,-1540.65 579,-1540.65"/>
</g>
<!-- lstm1 (LSTM) -->
<g id="node17" class="node"><title>lstm1 (LSTM)</title>
<polygon fill="#6495ed" stroke="black" points="906,-542.5 906,-578.5 1003,-578.5 1003,-542.5 906,-542.5"/>
<text text-anchor="middle" x="954.5" y="-556.8" font-family="Times,serif" font-size="14.00">lstm1 (LSTM)</text>
</g>
<!-- lstm1 (LSTM)&#45;&gt;lstm1 -->
<g id="edge49" class="edge"><title>lstm1 (LSTM)&#45;&gt;lstm1</title>
<path fill="none" stroke="black" d="M952.072,-542.198C950.429,-530.493 948.224,-514.786 946.345,-501.397"/>
<polygon fill="black" stroke="black" points="949.781,-500.693 944.925,-491.276 942.849,-501.666 949.781,-500.693"/>
</g>
<!-- lstm2 -->
<g id="node35" class="node"><title>lstm2</title>
<polygon fill="#e0e0e0" stroke="black" points="910.628,-318.544 910.628,-333.456 891.222,-344 863.778,-344 844.372,-333.456 844.372,-318.544 863.778,-308 891.222,-308 910.628,-318.544"/>
<text text-anchor="middle" x="877.5" y="-322.3" font-family="Times,serif" font-size="14.00">lstm2</text>
</g>
<!-- lstm2 (LSTM)&#45;&gt;lstm2 -->
<g id="edge53" class="edge"><title>lstm2 (LSTM)&#45;&gt;lstm2</title>
<path fill="none" stroke="black" d="M877.5,-381.192C877.5,-373.112 877.5,-363.301 877.5,-354.26"/>
<polygon fill="black" stroke="black" points="881,-354.149 877.5,-344.149 874,-354.149 881,-354.149"/>
</g>
<!-- fc7 (InnerProduct) -->
<g id="node19" class="node"><title>fc7 (InnerProduct)</title>
<polygon fill="#cc33ff" stroke="black" points="608,-703.5 608,-739.5 725,-739.5 725,-703.5 608,-703.5"/>
<text text-anchor="middle" x="666.5" y="-717.8" font-family="Times,serif" font-size="14.00">fc7 (InnerProduct)</text>
</g>
<!-- fc7 (InnerProduct)&#45;&gt;fc7 -->
<g id="edge38" class="edge"><title>fc7 (InnerProduct)&#45;&gt;fc7</title>
<path fill="none" stroke="black" d="M666.5,-703.198C666.5,-691.493 666.5,-675.786 666.5,-662.397"/>
<polygon fill="black" stroke="black" points="670,-662.276 666.5,-652.276 663,-662.277 670,-662.276"/>
<text text-anchor="middle" x="680.5" y="-673.8" font-family="Times,serif" font-size="14.00">4096</text>
</g>
<!-- norm2 (LRN)&#45;&gt;norm2 -->
<g id="edge16" class="edge"><title>norm2 (LRN)&#45;&gt;norm2</title>
<path fill="none" stroke="black" d="M575.5,-1641.19C575.5,-1633.11 575.5,-1623.3 575.5,-1614.26"/>
<polygon fill="black" stroke="black" points="579,-1614.15 575.5,-1604.15 572,-1614.15 579,-1614.15"/>
</g>
<!-- conv5&#45;&gt;relu5 (ReLU) -->
<g id="edge27" class="edge"><title>conv5&#45;&gt;relu5 (ReLU)</title>
<path fill="none" stroke="black" d="M569.622,-1084.69C568.782,-1076.61 568.549,-1066.8 568.922,-1057.76"/>
<polygon fill="black" stroke="black" points="572.423,-1057.87 569.638,-1047.65 565.44,-1057.38 572.423,-1057.87"/>
</g>
<!-- conv5&#45;&gt;pool5 (MAX Pooling) kernel size: 3 stride: 2 pad: 0 -->
<g id="edge29" class="edge"><title>conv5&#45;&gt;pool5 (MAX Pooling) kernel size: 3 stride: 2 pad: 0</title>
<path fill="none" stroke="black" d="M604.67,-1092.21C636.314,-1081.59 687.72,-1064.33 728.137,-1050.76"/>
<polygon fill="black" stroke="black" points="729.263,-1054.08 737.629,-1047.58 727.035,-1047.44 729.263,-1054.08"/>
</g>
<!-- relu1 (ReLU) -->
<g id="node22" class="node"><title>relu1 (ReLU)</title>
<polygon fill="#90ee90" stroke="black" points="104.5,-2243.5 104.5,-2279.5 194.5,-2279.5 194.5,-2243.5 104.5,-2243.5"/>
<text text-anchor="middle" x="149.5" y="-2257.8" font-family="Times,serif" font-size="14.00">relu1 (ReLU)</text>
</g>
<!-- relu1 (ReLU)&#45;&gt;conv1 -->
<g id="edge4" class="edge"><title>relu1 (ReLU)&#45;&gt;conv1</title>
<path fill="none" stroke="black" d="M155.362,-2279.65C156.209,-2287.71 156.45,-2297.51 156.085,-2306.56"/>
<polygon fill="black" stroke="black" points="152.583,-2306.47 155.378,-2316.69 159.566,-2306.96 152.583,-2306.47"/>
</g>
<!-- conv3 -->
<g id="node23" class="node"><title>conv3</title>
<polygon fill="#e0e0e0" stroke="black" points="610.85,-1417.54 610.85,-1432.46 590.143,-1443 560.857,-1443 540.15,-1432.46 540.15,-1417.54 560.857,-1407 590.143,-1407 610.85,-1417.54"/>
<text text-anchor="middle" x="575.5" y="-1421.3" font-family="Times,serif" font-size="14.00">conv3</text>
</g>
<!-- relu3 (ReLU) -->
<g id="node37" class="node"><title>relu3 (ReLU)</title>
<polygon fill="#90ee90" stroke="black" points="530.5,-1333.5 530.5,-1369.5 620.5,-1369.5 620.5,-1333.5 530.5,-1333.5"/>
<text text-anchor="middle" x="575.5" y="-1347.8" font-family="Times,serif" font-size="14.00">relu3 (ReLU)</text>
</g>
<!-- conv3&#45;&gt;relu3 (ReLU) -->
<g id="edge19" class="edge"><title>conv3&#45;&gt;relu3 (ReLU)</title>
<path fill="none" stroke="black" d="M569.622,-1406.69C568.782,-1398.61 568.549,-1388.8 568.922,-1379.76"/>
<polygon fill="black" stroke="black" points="572.423,-1379.87 569.638,-1369.65 565.44,-1379.38 572.423,-1379.87"/>
</g>
<!-- conv4 (Convolution) kernel size: 3 stride: 1 pad: 1 -->
<g id="node43" class="node"><title>conv4 (Convolution) kernel size: 3 stride: 1 pad: 1</title>
<polygon fill="#ff5050" stroke="black" points="638.5,-1333.5 638.5,-1369.5 930.5,-1369.5 930.5,-1333.5 638.5,-1333.5"/>
<text text-anchor="middle" x="784.5" y="-1347.8" font-family="Times,serif" font-size="14.00">conv4 (Convolution) kernel size: 3 stride: 1 pad: 1</text>
</g>
<!-- conv3&#45;&gt;conv4 (Convolution) kernel size: 3 stride: 1 pad: 1 -->
<g id="edge21" class="edge"><title>conv3&#45;&gt;conv4 (Convolution) kernel size: 3 stride: 1 pad: 1</title>
<path fill="none" stroke="black" d="M604.561,-1414.06C635.581,-1403.45 685.591,-1386.34 725.025,-1372.85"/>
<polygon fill="black" stroke="black" points="726.476,-1376.05 734.804,-1369.5 724.21,-1369.43 726.476,-1376.05"/>
</g>
<!-- probs (Softmax) -->
<g id="node24" class="node"><title>probs (Softmax)</title>
<polygon fill="#6495ed" stroke="black" points="824.5,-73.5 824.5,-109.5 930.5,-109.5 930.5,-73.5 824.5,-73.5"/>
<text text-anchor="middle" x="877.5" y="-87.8" font-family="Times,serif" font-size="14.00">probs (Softmax)</text>
</g>
<!-- probs -->
<g id="node26" class="node"><title>probs</title>
<ellipse fill="none" stroke="black" cx="877.5" cy="-18" rx="30.5947" ry="18"/>
<text text-anchor="middle" x="877.5" y="-14.3" font-family="Times,serif" font-size="14.00">probs</text>
</g>
<!-- probs (Softmax)&#45;&gt;probs -->
<g id="edge57" class="edge"><title>probs (Softmax)&#45;&gt;probs</title>
<path fill="none" stroke="black" d="M877.5,-73.1918C877.5,-65.112 877.5,-55.3014 877.5,-46.2598"/>
<polygon fill="black" stroke="black" points="881,-46.1487 877.5,-36.1488 874,-46.1488 881,-46.1487"/>
</g>
<!-- fc8 -->
<g id="node41" class="node"><title>fc8</title>
<polygon fill="#e0e0e0" stroke="black" points="810.5,-465.544 810.5,-480.456 794.684,-491 772.316,-491 756.5,-480.456 756.5,-465.544 772.316,-455 794.684,-455 810.5,-465.544"/>
<text text-anchor="middle" x="783.5" y="-469.3" font-family="Times,serif" font-size="14.00">fc8</text>
</g>
<!-- fc8 (InnerProduct)&#45;&gt;fc8 -->
<g id="edge44" class="edge"><title>fc8 (InnerProduct)&#45;&gt;fc8</title>
<path fill="none" stroke="black" d="M689.895,-542.403C709.501,-528.076 737.455,-507.648 757.705,-492.85"/>
<polygon fill="black" stroke="black" points="759.856,-495.613 765.865,-486.887 755.726,-489.961 759.856,-495.613"/>
<text text-anchor="middle" x="748.5" y="-512.8" font-family="Times,serif" font-size="14.00">1000</text>
</g>
<!-- pool1 -->
<g id="node27" class="node"><title>pool1</title>
<polygon fill="#e0e0e0" stroke="black" points="395.628,-2180.54 395.628,-2195.46 376.222,-2206 348.778,-2206 329.372,-2195.46 329.372,-2180.54 348.778,-2170 376.222,-2170 395.628,-2180.54"/>
<text text-anchor="middle" x="362.5" y="-2184.3" font-family="Times,serif" font-size="14.00">pool1</text>
</g>
<!-- pool1&#45;&gt;norm1 (LRN) -->
<g id="edge7" class="edge"><title>pool1&#45;&gt;norm1 (LRN)</title>
<path fill="none" stroke="black" d="M362.5,-2169.69C362.5,-2161.61 362.5,-2151.8 362.5,-2142.76"/>
<polygon fill="black" stroke="black" points="366,-2142.65 362.5,-2132.65 359,-2142.65 366,-2142.65"/>
</g>
<!-- drop6 (Dropout) -->
<g id="node28" class="node"><title>drop6 (Dropout)</title>
<polygon fill="#90ee90" stroke="black" points="851.5,-703.5 851.5,-739.5 957.5,-739.5 957.5,-703.5 851.5,-703.5"/>
<text text-anchor="middle" x="904.5" y="-717.8" font-family="Times,serif" font-size="14.00">drop6 (Dropout)</text>
</g>
<!-- fc6 -->
<g id="node29" class="node"><title>fc6</title>
<polygon fill="#e0e0e0" stroke="black" points="815.5,-787.544 815.5,-802.456 799.684,-813 777.316,-813 761.5,-802.456 761.5,-787.544 777.316,-777 799.684,-777 815.5,-787.544"/>
<text text-anchor="middle" x="788.5" y="-791.3" font-family="Times,serif" font-size="14.00">fc6</text>
</g>
<!-- drop6 (Dropout)&#45;&gt;fc6 -->
<g id="edge36" class="edge"><title>drop6 (Dropout)&#45;&gt;fc6</title>
<path fill="none" stroke="black" d="M882.572,-739.627C864.473,-751.558 838.814,-767.328 818.782,-778.811"/>
<polygon fill="black" stroke="black" points="817.009,-775.792 810.021,-783.756 820.45,-781.888 817.009,-775.792"/>
</g>
<!-- fc6&#45;&gt;fc7 (InnerProduct) -->
<g id="edge37" class="edge"><title>fc6&#45;&gt;fc7 (InnerProduct)</title>
<path fill="none" stroke="black" d="M768.899,-782.512C751.571,-772.357 725.805,-757.257 704.455,-744.744"/>
<polygon fill="black" stroke="black" points="706.01,-741.599 695.613,-739.562 702.471,-747.638 706.01,-741.599"/>
</g>
<!-- fc6&#45;&gt;drop6 (Dropout) -->
<g id="edge35" class="edge"><title>fc6&#45;&gt;drop6 (Dropout)</title>
<path fill="none" stroke="black" d="M805.408,-780.214C820.366,-770.15 842.566,-756.293 862.218,-744.68"/>
<polygon fill="black" stroke="black" points="864.168,-747.594 871.033,-739.524 860.634,-741.552 864.168,-747.594"/>
</g>
<!-- relu6 (ReLU) -->
<g id="node31" class="node"><title>relu6 (ReLU)</title>
<polygon fill="#90ee90" stroke="black" points="743.5,-703.5 743.5,-739.5 833.5,-739.5 833.5,-703.5 743.5,-703.5"/>
<text text-anchor="middle" x="788.5" y="-717.8" font-family="Times,serif" font-size="14.00">relu6 (ReLU)</text>
</g>
<!-- fc6&#45;&gt;relu6 (ReLU) -->
<g id="edge33" class="edge"><title>fc6&#45;&gt;relu6 (ReLU)</title>
<path fill="none" stroke="black" d="M782.622,-776.692C781.782,-768.612 781.549,-758.801 781.922,-749.76"/>
<polygon fill="black" stroke="black" points="785.423,-749.871 782.638,-739.649 778.44,-749.376 785.423,-749.871"/>
</g>
<!-- input_sentence -->
<g id="node30" class="node"><title>input_sentence</title>
<polygon fill="#e0e0e0" stroke="black" points="1143.38,-787.544 1143.38,-802.456 1103.03,-813 1045.97,-813 1005.62,-802.456 1005.62,-787.544 1045.97,-777 1103.03,-777 1143.38,-787.544"/>
<text text-anchor="middle" x="1074.5" y="-791.3" font-family="Times,serif" font-size="14.00">input_sentence</text>
</g>
<!-- input_sentence&#45;&gt;embedding (Embed) -->
<g id="edge45" class="edge"><title>input_sentence&#45;&gt;embedding (Embed)</title>
<path fill="none" stroke="black" d="M1074.5,-776.692C1074.5,-768.612 1074.5,-758.801 1074.5,-749.76"/>
<polygon fill="black" stroke="black" points="1078,-749.649 1074.5,-739.649 1071,-749.649 1078,-749.649"/>
</g>
<!-- relu6 (ReLU)&#45;&gt;fc6 -->
<g id="edge34" class="edge"><title>relu6 (ReLU)&#45;&gt;fc6</title>
<path fill="none" stroke="black" d="M794.362,-739.649C795.209,-747.706 795.45,-757.51 795.085,-766.562"/>
<polygon fill="black" stroke="black" points="791.583,-766.472 794.378,-776.692 798.566,-766.96 791.583,-766.472"/>
</g>
<!-- conv1&#45;&gt;relu1 (ReLU) -->
<g id="edge3" class="edge"><title>conv1&#45;&gt;relu1 (ReLU)</title>
<path fill="none" stroke="black" d="M143.622,-2316.69C142.782,-2308.61 142.549,-2298.8 142.922,-2289.76"/>
<polygon fill="black" stroke="black" points="146.423,-2289.87 143.638,-2279.65 139.44,-2289.38 146.423,-2289.87"/>
</g>
<!-- pool1 (MAX Pooling) kernel size: 3 stride: 2 pad: 0 -->
<g id="node47" class="node"><title>pool1 (MAX Pooling) kernel size: 3 stride: 2 pad: 0</title>
<polygon fill="#ff9900" stroke="black" points="212.5,-2243.5 212.5,-2279.5 512.5,-2279.5 512.5,-2243.5 212.5,-2243.5"/>
<text text-anchor="middle" x="362.5" y="-2257.8" font-family="Times,serif" font-size="14.00">pool1 (MAX Pooling) kernel size: 3 stride: 2 pad: 0</text>
</g>
<!-- conv1&#45;&gt;pool1 (MAX Pooling) kernel size: 3 stride: 2 pad: 0 -->
<g id="edge5" class="edge"><title>conv1&#45;&gt;pool1 (MAX Pooling) kernel size: 3 stride: 2 pad: 0</title>
<path fill="none" stroke="black" d="M178.67,-2324.21C210.314,-2313.59 261.72,-2296.33 302.137,-2282.76"/>
<polygon fill="black" stroke="black" points="303.263,-2286.08 311.629,-2279.58 301.035,-2279.44 303.263,-2286.08"/>
</g>
<!-- conv2&#45;&gt;pool2 (MAX Pooling) kernel size: 3 stride: 2 pad: 0 -->
<g id="edge13" class="edge"><title>conv2&#45;&gt;pool2 (MAX Pooling) kernel size: 3 stride: 2 pad: 0</title>
<path fill="none" stroke="black" d="M391.67,-1869.21C423.314,-1858.59 474.72,-1841.33 515.137,-1827.76"/>
<polygon fill="black" stroke="black" points="516.263,-1831.08 524.629,-1824.58 514.035,-1824.44 516.263,-1831.08"/>
</g>
<!-- conv2&#45;&gt;relu2 (ReLU) -->
<g id="edge11" class="edge"><title>conv2&#45;&gt;relu2 (ReLU)</title>
<path fill="none" stroke="black" d="M356.622,-1861.69C355.782,-1853.61 355.549,-1843.8 355.922,-1834.76"/>
<polygon fill="black" stroke="black" points="359.423,-1834.87 356.638,-1824.65 352.44,-1834.38 359.423,-1834.87"/>
</g>
<!-- predict -->
<g id="node34" class="node"><title>predict</title>
<polygon fill="#e0e0e0" stroke="black" points="915.477,-157.544 915.477,-172.456 893.231,-183 861.769,-183 839.523,-172.456 839.523,-157.544 861.769,-147 893.231,-147 915.477,-157.544"/>
<text text-anchor="middle" x="877.5" y="-161.3" font-family="Times,serif" font-size="14.00">predict</text>
</g>
<!-- predict&#45;&gt;probs (Softmax) -->
<g id="edge56" class="edge"><title>predict&#45;&gt;probs (Softmax)</title>
<path fill="none" stroke="black" d="M877.5,-146.692C877.5,-138.612 877.5,-128.801 877.5,-119.76"/>
<polygon fill="black" stroke="black" points="881,-119.649 877.5,-109.649 874,-119.649 881,-119.649"/>
</g>
<!-- predict (InnerProduct) -->
<g id="node38" class="node"><title>predict (InnerProduct)</title>
<polygon fill="#cc33ff" stroke="black" points="809,-234.5 809,-270.5 946,-270.5 946,-234.5 809,-234.5"/>
<text text-anchor="middle" x="877.5" y="-248.8" font-family="Times,serif" font-size="14.00">predict (InnerProduct)</text>
</g>
<!-- lstm2&#45;&gt;predict (InnerProduct) -->
<g id="edge54" class="edge"><title>lstm2&#45;&gt;predict (InnerProduct)</title>
<path fill="none" stroke="black" d="M877.5,-307.692C877.5,-299.612 877.5,-289.801 877.5,-280.76"/>
<polygon fill="black" stroke="black" points="881,-280.649 877.5,-270.649 874,-280.649 881,-280.649"/>
</g>
<!-- fc6 (InnerProduct)&#45;&gt;fc6 -->
<g id="edge32" class="edge"><title>fc6 (InnerProduct)&#45;&gt;fc6</title>
<path fill="none" stroke="black" d="M788.5,-864.198C788.5,-852.493 788.5,-836.786 788.5,-823.397"/>
<polygon fill="black" stroke="black" points="792,-823.276 788.5,-813.276 785,-823.277 792,-823.276"/>
<text text-anchor="middle" x="802.5" y="-834.8" font-family="Times,serif" font-size="14.00">4096</text>
</g>
<!-- relu3 (ReLU)&#45;&gt;conv3 -->
<g id="edge20" class="edge"><title>relu3 (ReLU)&#45;&gt;conv3</title>
<path fill="none" stroke="black" d="M581.362,-1369.65C582.209,-1377.71 582.45,-1387.51 582.085,-1396.56"/>
<polygon fill="black" stroke="black" points="578.583,-1396.47 581.378,-1406.69 585.566,-1396.96 578.583,-1396.47"/>
</g>
<!-- predict (InnerProduct)&#45;&gt;predict -->
<g id="edge55" class="edge"><title>predict (InnerProduct)&#45;&gt;predict</title>
<path fill="none" stroke="black" d="M877.5,-234.198C877.5,-222.493 877.5,-206.786 877.5,-193.397"/>
<polygon fill="black" stroke="black" points="881,-193.276 877.5,-183.276 874,-193.277 881,-193.276"/>
<text text-anchor="middle" x="891.5" y="-204.8" font-family="Times,serif" font-size="14.00">8801</text>
</g>
<!-- embedded_input_sentence&#45;&gt;lstm1 (LSTM) -->
<g id="edge47" class="edge"><title>embedded_input_sentence&#45;&gt;lstm1 (LSTM)</title>
<path fill="none" stroke="black" d="M1045.76,-615.874C1029.7,-606.305 1009.49,-594.265 992.177,-583.949"/>
<polygon fill="black" stroke="black" points="993.807,-580.846 983.424,-578.734 990.224,-586.86 993.807,-580.846"/>
</g>
<!-- conv2 (Convolution) kernel size: 5 stride: 1 pad: 2 -->
<g id="node40" class="node"><title>conv2 (Convolution) kernel size: 5 stride: 1 pad: 2</title>
<polygon fill="#ff5050" stroke="black" points="216.5,-1949.5 216.5,-1985.5 508.5,-1985.5 508.5,-1949.5 216.5,-1949.5"/>
<text text-anchor="middle" x="362.5" y="-1963.8" font-family="Times,serif" font-size="14.00">conv2 (Convolution) kernel size: 5 stride: 1 pad: 2</text>
</g>
<!-- conv2 (Convolution) kernel size: 5 stride: 1 pad: 2&#45;&gt;conv2 -->
<g id="edge10" class="edge"><title>conv2 (Convolution) kernel size: 5 stride: 1 pad: 2&#45;&gt;conv2</title>
<path fill="none" stroke="black" d="M362.5,-1949.2C362.5,-1937.49 362.5,-1921.79 362.5,-1908.4"/>
<polygon fill="black" stroke="black" points="366,-1908.28 362.5,-1898.28 359,-1908.28 366,-1908.28"/>
<text text-anchor="middle" x="373" y="-1919.8" font-family="Times,serif" font-size="14.00">256</text>
</g>
<!-- fc8&#45;&gt;lstm2 (LSTM) -->
<g id="edge52" class="edge"><title>fc8&#45;&gt;lstm2 (LSTM)</title>
<path fill="none" stroke="black" d="M800.741,-458.886C813.621,-449.089 831.565,-435.44 846.865,-423.802"/>
<polygon fill="black" stroke="black" points="849.204,-426.42 855.044,-417.581 844.966,-420.849 849.204,-426.42"/>
</g>
<!-- norm1&#45;&gt;conv2 (Convolution) kernel size: 5 stride: 1 pad: 2 -->
<g id="edge9" class="edge"><title>norm1&#45;&gt;conv2 (Convolution) kernel size: 5 stride: 1 pad: 2</title>
<path fill="none" stroke="black" d="M362.5,-2022.69C362.5,-2014.61 362.5,-2004.8 362.5,-1995.76"/>
<polygon fill="black" stroke="black" points="366,-1995.65 362.5,-1985.65 359,-1995.65 366,-1995.65"/>
</g>
<!-- conv4 (Convolution) kernel size: 3 stride: 1 pad: 1&#45;&gt;conv4 -->
<g id="edge22" class="edge"><title>conv4 (Convolution) kernel size: 3 stride: 1 pad: 1&#45;&gt;conv4</title>
<path fill="none" stroke="black" d="M784.5,-1333.2C784.5,-1321.49 784.5,-1305.79 784.5,-1292.4"/>
<polygon fill="black" stroke="black" points="788,-1292.28 784.5,-1282.28 781,-1292.28 788,-1292.28"/>
<text text-anchor="middle" x="795" y="-1303.8" font-family="Times,serif" font-size="14.00">384</text>
</g>
<!-- relu4 (ReLU)&#45;&gt;conv4 -->
<g id="edge24" class="edge"><title>relu4 (ReLU)&#45;&gt;conv4</title>
<path fill="none" stroke="black" d="M790.362,-1208.65C791.209,-1216.71 791.45,-1226.51 791.085,-1235.56"/>
<polygon fill="black" stroke="black" points="787.583,-1235.47 790.378,-1245.69 794.566,-1235.96 787.583,-1235.47"/>
</g>
<!-- drop7 (Dropout)&#45;&gt;fc7 -->
<g id="edge42" class="edge"><title>drop7 (Dropout)&#45;&gt;fc7</title>
<path fill="none" stroke="black" d="M771.177,-578.652C750.195,-590.9 720.471,-607.186 697.974,-618.727"/>
<polygon fill="black" stroke="black" points="696.164,-615.72 688.821,-623.357 699.324,-621.966 696.164,-615.72"/>
</g>
<!-- cont_sentence -->
<g id="node46" class="node"><title>cont_sentence</title>
<polygon fill="#e0e0e0" stroke="black" points="942.85,-626.544 942.85,-641.456 904.569,-652 850.431,-652 812.15,-641.456 812.15,-626.544 850.431,-616 904.569,-616 942.85,-626.544"/>
<text text-anchor="middle" x="877.5" y="-630.3" font-family="Times,serif" font-size="14.00">cont_sentence</text>
</g>
<!-- cont_sentence&#45;&gt;lstm1 (LSTM) -->
<g id="edge48" class="edge"><title>cont_sentence&#45;&gt;lstm1 (LSTM)</title>
<path fill="none" stroke="black" d="M896.14,-615.692C905.881,-606.646 917.959,-595.431 928.596,-585.554"/>
<polygon fill="black" stroke="black" points="931.086,-588.018 936.032,-578.649 926.323,-582.889 931.086,-588.018"/>
</g>
<!-- cont_sentence&#45;&gt;lstm2 (LSTM) -->
<g id="edge51" class="edge"><title>cont_sentence&#45;&gt;lstm2 (LSTM)</title>
<path fill="none" stroke="black" d="M877.5,-615.904C877.5,-575.931 877.5,-476.089 877.5,-427.675"/>
<polygon fill="black" stroke="black" points="881,-427.621 877.5,-417.621 874,-427.621 881,-427.621"/>
</g>
<!-- pool1 (MAX Pooling) kernel size: 3 stride: 2 pad: 0&#45;&gt;pool1 -->
<g id="edge6" class="edge"><title>pool1 (MAX Pooling) kernel size: 3 stride: 2 pad: 0&#45;&gt;pool1</title>
<path fill="none" stroke="black" d="M362.5,-2243.19C362.5,-2235.11 362.5,-2225.3 362.5,-2216.26"/>
<polygon fill="black" stroke="black" points="366,-2216.15 362.5,-2206.15 359,-2216.15 366,-2216.15"/>
</g>
<!-- conv3 (Convolution) kernel size: 3 stride: 1 pad: 1&#45;&gt;conv3 -->
<g id="edge18" class="edge"><title>conv3 (Convolution) kernel size: 3 stride: 1 pad: 1&#45;&gt;conv3</title>
<path fill="none" stroke="black" d="M575.5,-1494.2C575.5,-1482.49 575.5,-1466.79 575.5,-1453.4"/>
<polygon fill="black" stroke="black" points="579,-1453.28 575.5,-1443.28 572,-1453.28 579,-1453.28"/>
<text text-anchor="middle" x="586" y="-1464.8" font-family="Times,serif" font-size="14.00">384</text>
</g>
</g>
</svg>
